<mxfile host="app.diagrams.net" modified="2024-04-27T17:57:16.893Z" agent="Mozilla/5.0 (Windows NT 10.0; Win64; x64) AppleWebKit/537.36 (KHTML, like Gecko) Chrome/123.0.0.0 Safari/537.36 OPR/109.0.0.0" version="24.3.1" etag="qB1K6Z3AZcLf5nog1LD_" type="github">
  <diagram name="Page-1" id="qXnX1R_AnVrBsM34ZYDM">
    <mxGraphModel>
      <root>
        <mxCell id="0" />
        <mxCell id="1" parent="0" />
      </root>
    </mxGraphModel>
  </diagram>
</mxfile>
